<?xml version="1.0" encoding="utf-8"?>
<!-- Generator: Adobe Illustrator 15.0.0, SVG Export Plug-In . SVG Version: 6.00 Build 0)  -->
<!DOCTYPE svg PUBLIC "-//W3C//DTD SVG 1.1//EN" "http://www.w3.org/Graphics/SVG/1.1/DTD/svg11.dtd">
<svg version="1.1" id="Default" xmlns="http://www.w3.org/2000/svg" xmlns:xlink="http://www.w3.org/1999/xlink" x="0px" y="0px"
	 width="1024px" height="768px" viewBox="0 0 1024 768" enable-background="new 0 0 1024 768" xml:space="preserve">
<g id="XMLID_1_">
	<g>
		<path fill="#FFFFFF" d="M540.72,314.88c17.56,9.33,24.22,31.13,14.88,48.69c-2.82,5.29-5.63,10.59-8.449,15.89
			c-9.34,17.55-31.141,24.21-48.69,14.88c-17.55-9.34-24.21-31.14-14.88-48.69c2.82-5.3,5.64-10.6,8.45-15.89
			C501.37,312.2,523.17,305.54,540.72,314.88z"/>
		<path fill="#FFFFFF" d="M509.37,431.01c4.729,19.31-7.09,38.801-26.4,43.53c-19.31,4.729-38.8-7.08-43.54-26.4
			c-4.73-19.31,7.09-38.8,26.4-43.529C485.14,399.88,504.63,411.7,509.37,431.01z"/>
		<path d="M549.17,298.98c26.34,14.01,36.33,46.71,22.32,73.04c-2.81,5.29-5.63,10.59-8.45,15.89
			c-13.65,25.67-27.31,51.35-40.96,77.021c-14.01,26.339-46.71,36.329-73.04,22.319c-26.33-14-36.32-46.7-22.32-73.029
			c13.66-25.671,27.31-51.351,40.97-77.021c2.82-5.3,5.63-10.6,8.45-15.9C490.15,294.97,522.84,284.98,549.17,298.98z M555.6,363.57
			c9.34-17.56,2.68-39.36-14.88-48.69c-17.55-9.34-39.35-2.68-48.69,14.88c-2.81,5.29-5.63,10.59-8.45,15.89
			c-9.33,17.55-2.67,39.35,14.88,48.69c17.55,9.33,39.351,2.67,48.69-14.88C549.97,374.16,552.779,368.86,555.6,363.57z
			 M482.97,474.54c19.31-4.729,31.129-24.221,26.4-43.53c-4.74-19.31-24.23-31.13-43.54-26.399
			c-19.31,4.729-31.13,24.22-26.4,43.529C444.17,467.46,463.66,479.27,482.97,474.54z"/>
	</g>
	<g>
		<path fill="none" stroke="#000000" stroke-linecap="round" stroke-linejoin="round" d="M555.6,363.57
			c9.34-17.56,2.68-39.36-14.88-48.69c-17.55-9.34-39.35-2.68-48.69,14.88c-2.81,5.29-5.63,10.59-8.45,15.89
			c-9.33,17.55-2.67,39.35,14.88,48.69c17.55,9.33,39.351,2.67,48.69-14.88C549.97,374.16,552.779,368.86,555.6,363.57z"/>
		<path fill="none" stroke="#000000" stroke-linecap="round" stroke-linejoin="round" d="M509.37,431.01
			c-4.74-19.31-24.23-31.13-43.54-26.399c-19.31,4.729-31.13,24.22-26.4,43.529c4.74,19.32,24.23,31.13,43.54,26.4
			C502.28,469.811,514.1,450.319,509.37,431.01z"/>
		<path fill="none" stroke="#000000" stroke-linecap="round" stroke-linejoin="round" d="M563.04,387.91
			c2.82-5.3,5.641-10.6,8.45-15.89c14.01-26.33,4.02-59.03-22.32-73.04c-26.33-14-59.02-4.01-73.03,22.32
			c-2.82,5.3-5.63,10.6-8.45,15.9c-13.66,25.67-27.31,51.35-40.97,77.021c-14,26.329-4.01,59.029,22.32,73.029
			c26.33,14.01,59.03,4.02,73.04-22.319C535.73,439.26,549.39,413.58,563.04,387.91z"/>
	</g>
</g>
</svg>
